<svg id="Capa_1" enable-background="new 0 0 512 512" height="512" viewBox="0 0 512 512" width="512" xmlns="http://www.w3.org/2000/svg"><g><path d="m459.492 286.675c27.904-29.65 45.008-69.579 45.008-113.508 0-91.495-74.171-165.667-165.667-165.667v331.333c29.552 0 57.291-7.747 81.313-21.307 14.27 13.221 33.366 21.307 54.354 21.307 10.61 0 20.735-2.07 30-5.821-20.765-8.406-37.188-25.281-45.008-46.337z" fill="#b8b4b3"/><path d="m338.833 7.5c-91.495 0-165.666 74.171-165.666 165.667s74.171 165.667 165.666 165.667c74.927 0 135.667-74.172 135.667-165.667s-60.74-165.667-135.667-165.667z" fill="#d0cdcd"/><path d="m173.167 173.167v331.333c91.495 0 165.667-74.171 165.667-165.667-.001-91.495-74.172-165.666-165.667-165.666z" fill="#e7e6e6"/><path d="m308.834 338.833c0-91.495-60.74-165.667-135.667-165.667-91.496.001-165.667 74.172-165.667 165.667 0 43.929 17.104 83.858 45.008 113.508-7.821 21.056-24.243 37.931-45.008 46.338 9.265 3.751 19.39 5.821 30 5.821 20.988 0 40.083-8.086 54.354-21.307 24.022 13.56 51.761 21.307 81.313 21.307 74.927 0 135.667-74.171 135.667-165.667z" fill="#fff"/><circle cx="338.833" cy="173.833" r="7.5"/><circle cx="368.833" cy="173.833" r="7.5"/><circle cx="308.833" cy="173.833" r="7.5"/><path d="m507.314 326.06c-17.447-7.063-31.485-20.707-39.089-37.819 28.265-31.746 43.775-72.419 43.775-115.074 0-95.484-77.683-173.167-173.167-173.167-83.68 0-155.315 59.658-170.334 141.853-.744 4.075 1.955 7.981 6.03 8.726 4.068.742 7.98-1.956 8.726-6.03 13.716-75.066 79.145-129.549 155.578-129.549 87.214 0 158.167 70.954 158.167 158.167 0 40.438-15.26 78.924-42.97 108.368-1.953 2.076-2.562 5.08-1.569 7.751 6.252 16.833 17.537 31.239 32.053 41.363-3.298.456-6.64.684-10.014.684-18.324 0-35.817-6.857-49.256-19.309-2.393-2.217-5.944-2.634-8.784-1.03-15.263 8.615-31.751 14.581-49.009 17.731-4.075.744-6.775 4.65-6.031 8.725.743 4.076 4.654 6.771 8.725 6.031 17.154-3.131 33.617-8.803 49.011-16.878 15.6 12.76 35.05 19.729 55.345 19.729 11.335 0 22.376-2.143 32.814-6.37 2.832-1.146 4.686-3.896 4.686-6.952-.001-3.053-1.855-5.803-4.687-6.95z"/><path d="m189.459 334.21c2.165-3.334 3.423-7.308 3.423-11.57 0-11.748-9.558-21.306-21.306-21.306h-17.429c-4.143 0-7.5 3.358-7.5 7.5v60c0 1.995.795 3.908 2.208 5.315 1.406 1.4 3.309 2.185 5.292 2.185.033 0 16.056-.071 20.472-.071 13.041 0 23.65-10.609 23.65-23.65.001-7.426-3.44-14.064-8.81-18.403zm-27.811-17.876h9.929c3.477 0 6.306 2.829 6.306 6.306s-2.829 6.306-6.306 6.306c-.166 0-.332.005-.495.016h-9.434zm12.971 44.928c-2.388 0-8.158.021-12.972.04v-17.34h12.972c4.77 0 8.65 3.88 8.65 8.65.001 4.77-3.88 8.65-8.65 8.65z"/><path d="m109.257 307.01c-.021-.056-.043-.112-.066-.168-1.365-3.341-4.591-5.503-8.201-5.508-3.61.004-6.836 2.167-8.201 5.508-.023.056-.045.112-.066.168l-22.53 59.155c-1.475 3.871.469 8.204 4.339 9.678 3.87 1.472 8.204-.467 9.679-4.339l3.777-9.902h26.006l3.777 9.902c1.475 3.872 5.809 5.812 9.679 4.339 3.87-1.474 5.813-5.808 4.339-9.678zm-15.549 39.591 7.281-19.086 7.281 19.086z"/><path d="m273.954 354.62c-3.174-2.663-7.904-2.249-10.566.924-.523.623-1.088 1.206-1.679 1.732-3.022 2.692-6.884 4.057-11.477 4.057-12.406 0-22.5-10.093-22.5-22.5s10.094-22.5 22.5-22.5c4.51 0 8.858 1.327 12.575 3.838 3.433 2.319 8.095 1.416 10.413-2.016s1.416-8.095-2.017-10.414c-6.205-4.192-13.458-6.409-20.972-6.409-20.678 0-37.5 16.822-37.5 37.5s16.822 37.5 37.5 37.5c8.265 0 15.684-2.717 21.454-7.857 1.131-1.007 2.204-2.115 3.191-3.291 2.665-3.171 2.251-7.902-.922-10.564z"/><path d="m173.167 165.667c-95.484 0-173.167 77.682-173.167 173.166 0 42.656 15.51 83.329 43.775 115.075-7.604 17.112-21.644 30.756-39.09 37.819-2.831 1.147-4.685 3.896-4.685 6.952 0 3.055 1.854 5.805 4.686 6.952 10.438 4.226 21.479 6.369 32.814 6.369 20.295 0 39.744-6.969 55.346-19.73 24.661 12.922 52.316 19.73 80.321 19.73 95.484 0 173.166-77.683 173.166-173.167s-77.682-173.166-173.166-173.166zm0 331.333c-27.212 0-54.056-7.033-77.627-20.338-1.152-.651-2.423-.969-3.685-.969-1.847 0-3.678.682-5.099 1.999-13.44 12.451-30.933 19.308-49.256 19.308-3.374 0-6.716-.229-10.014-.684 14.516-10.125 25.801-24.531 32.053-41.363.993-2.672.385-5.676-1.568-7.751-27.71-29.445-42.971-67.931-42.971-108.369 0-87.213 70.953-158.167 158.167-158.167 87.213 0 158.166 70.953 158.166 158.167s-70.953 158.167-158.166 158.167z"/></g></svg>