<svg id="Capa_1" enable-background="new 0 0 512 512" height="512" viewBox="0 0 512 512" width="512" xmlns="http://www.w3.org/2000/svg"><g><circle cx="256" cy="100" r="40"/><path d="m506.384 121.012-246-120c-2.766-1.35-6.002-1.35-8.768 0l-246 120c-3.436 1.676-5.616 5.165-5.616 8.988v60c0 5.522 4.477 10 10 10h36v232h-36c-5.523 0-10 4.478-10 10v60c0 5.522 4.477 10 10 10h492c5.522 0 10-4.478 10-10v-60c0-5.522-4.478-10-10-10h-36v-232h36c5.522 0 10-4.478 10-10v-60c0-3.823-2.18-7.312-5.616-8.988zm-14.384 330.988v40h-472v-40zm-426-20v-232h40v232zm60 0v-232h40v232zm60 0v-232h140v232zm160 0v-232h40v232zm60 0v-232h40v232zm86-252h-472v-40h136c5.523 0 10-4.478 10-10s-4.477-10-10-10h-102.692l202.692-98.874 202.692 98.874h-102.692c-5.522 0-10 4.478-10 10s4.478 10 10 10h136z"/></g></svg>